<?xml version="1.0" encoding="UTF-8" standalone="no"?>
<!DOCTYPE svg PUBLIC "-//W3C//DTD SVG 1.1//EN" "http://www.w3.org/Graphics/SVG/1.1/DTD/svg11.dtd">
<svg width="100%" height="100%" viewBox="0 0 87 100" version="1.1" xmlns="http://www.w3.org/2000/svg" xmlns:xlink="http://www.w3.org/1999/xlink" xml:space="preserve" xmlns:serif="http://www.serif.com/" style="fill-rule:evenodd;clip-rule:evenodd;stroke-linejoin:round;stroke-miterlimit:2;">
    <g transform="matrix(1,0,0,1,-253.152,-267.88)">
        <g transform="matrix(1,0,0,1,322.582,302.795)">
            <path d="M0,30.17L-18.586,28.149L-26.129,45.255L-33.672,28.149L-52.258,30.17L-41.214,15.085L-52.258,-0.001L-33.672,2.021L-26.129,-15.086L-18.586,2.021L0,-0.001L-11.043,15.085L0,30.17ZM17.172,-9.915L-13.629,-6.566L-26.129,-34.915L-38.629,-6.566L-69.43,-9.915L-51.129,15.085L-69.43,40.085L-38.629,36.735L-26.129,65.085L-13.629,36.735L17.172,40.085L-1.129,15.085L17.172,-9.915Z" style="fill-rule:nonzero;"/>
        </g>
    </g>
</svg>
