<?xml version="1.0" encoding="UTF-8" standalone="no"?>
<!DOCTYPE svg PUBLIC "-//W3C//DTD SVG 1.1//EN" "http://www.w3.org/Graphics/SVG/1.1/DTD/svg11.dtd">
<svg width="100%" height="100%" viewBox="0 0 57 101" version="1.1" xmlns="http://www.w3.org/2000/svg" xmlns:xlink="http://www.w3.org/1999/xlink" xml:space="preserve" xmlns:serif="http://www.serif.com/" style="fill-rule:evenodd;clip-rule:evenodd;stroke-linejoin:round;stroke-miterlimit:2;">
    <g transform="matrix(1,0,0,1,-506.308,-267.88)">
        <g transform="matrix(1,0,0,1,538.053,275.88)">
            <path d="M0,50.316L-11.396,50.316L3.115,0L14.512,0L0,50.316ZM-2.904,-8L-22.03,58.316L6.019,58.316L25.145,-8L-2.904,-8Z" style="fill-rule:nonzero;"/>
        </g>
        <g transform="matrix(1,0,0,1,519.324,359.88)">
            <path d="M0,-8.26L11.396,-8.26L9.014,0L-2.382,0L0,-8.26ZM-13.016,8L15.033,8L22.03,-16.26L-6.019,-16.26L-13.016,8Z" style="fill-rule:nonzero;"/>
        </g>
    </g>
</svg>
