<?xml version="1.0" encoding="UTF-8" standalone="no"?>
<!DOCTYPE svg PUBLIC "-//W3C//DTD SVG 1.1//EN" "http://www.w3.org/Graphics/SVG/1.1/DTD/svg11.dtd">
<svg xmlns="http://www.w3.org/2000/svg" version="1.1" viewBox="0.00 0.00 510.00 474.00">
<g stroke-width="2.00" fill="none" stroke-linecap="butt">
<path stroke="#9198a7" vector-effect="non-scaling-stroke" d="
  M 176.21 256.50
  Q 190.23 261.80 210.53 269.83
  Q 215.90 271.95 219.34 271.71
  Q 228.48 271.05 228.48 260.24
  Q 228.44 169.25 228.47 78.25
  Q 228.47 72.87 225.54 70.18
  Q 222.41 67.31 218.94 67.57
  C 213.03 68.02 209.55 72.42 205.72 76.41
  Q 145.63 138.92 84.05 202.67
  C 80.52 206.33 77.17 210.50 79.36 215.86
  Q 81.00 219.87 85.31 221.56
  Q 130.89 239.37 176.21 256.50"
/>
<path stroke="#9198a7" vector-effect="non-scaling-stroke" d="
  M 287.64 261.80
  Q 293.96 259.35 300.75 256.74
  Q 346.69 239.03 392.67 221.41
  C 394.10 220.86 396.31 219.34 396.89 217.73
  Q 397.26 216.70 397.80 215.75
  C 400.50 210.97 396.33 206.03 393.24 202.83
  Q 330.75 138.05 266.58 71.40
  Q 262.92 67.60 257.38 67.55
  C 253.74 67.51 250.98 70.81 249.59 73.93
  Q 248.48 76.41 248.48 80.08
  Q 248.48 175.02 248.51 259.22
  Q 248.51 262.37 249.40 265.36
  Q 250.00 267.38 251.24 268.74
  C 254.42 272.24 258.84 272.47 263.22 270.90
  Q 275.81 266.37 287.64 261.80"
/>
<path stroke="#9198a7" vector-effect="non-scaling-stroke" d="
  M 99.19 266.97
  Q 100.46 270.58 102.80 272.97
  Q 156.60 327.73 211.28 383.40
  Q 215.09 387.27 219.92 386.81
  Q 222.00 386.61 223.52 385.41
  C 227.13 382.57 228.43 380.80 228.44 376.02
  Q 228.51 342.45 228.42 308.21
  Q 228.41 303.29 225.42 300.18
  Q 223.50 298.18 218.66 296.30
  Q 151.69 270.21 122.89 259.07
  Q 119.23 257.66 115.33 256.03
  Q 113.36 255.21 111.50 255.08
  C 106.28 254.73 102.01 256.22 99.65 261.28
  Q 98.25 264.29 99.19 266.97"
/>
<path stroke="#9198a7" vector-effect="non-scaling-stroke" d="
  M 361.46 256.24
  C 326.32 269.81 286.31 285.62 255.80 297.30
  Q 248.48 300.11 248.48 307.75
  Q 248.49 341.75 248.50 375.76
  C 248.50 384.89 258.30 391.01 265.58 383.62
  Q 320.25 328.12 374.58 272.74
  Q 379.20 268.03 377.59 261.76
  Q 377.11 259.87 375.58 258.33
  C 372.94 255.69 370.43 255.00 366.76 255.07
  Q 364.36 255.11 361.46 256.24"
/>
</g>
<path fill="#ffffff" d="
  M 0.00 0.00
  L 510.00 0.00
  L 510.00 474.00
  L 0.00 474.00
  L 0.00 0.00
  Z
  M 176.21 256.50
  Q 190.23 261.80 210.53 269.83
  Q 215.90 271.95 219.34 271.71
  Q 228.48 271.05 228.48 260.24
  Q 228.44 169.25 228.47 78.25
  Q 228.47 72.87 225.54 70.18
  Q 222.41 67.31 218.94 67.57
  C 213.03 68.02 209.55 72.42 205.72 76.41
  Q 145.63 138.92 84.05 202.67
  C 80.52 206.33 77.17 210.50 79.36 215.86
  Q 81.00 219.87 85.31 221.56
  Q 130.89 239.37 176.21 256.50
  Z
  M 287.64 261.80
  Q 293.96 259.35 300.75 256.74
  Q 346.69 239.03 392.67 221.41
  C 394.10 220.86 396.31 219.34 396.89 217.73
  Q 397.26 216.70 397.80 215.75
  C 400.50 210.97 396.33 206.03 393.24 202.83
  Q 330.75 138.05 266.58 71.40
  Q 262.92 67.60 257.38 67.55
  C 253.74 67.51 250.98 70.81 249.59 73.93
  Q 248.48 76.41 248.48 80.08
  Q 248.48 175.02 248.51 259.22
  Q 248.51 262.37 249.40 265.36
  Q 250.00 267.38 251.24 268.74
  C 254.42 272.24 258.84 272.47 263.22 270.90
  Q 275.81 266.37 287.64 261.80
  Z
  M 99.19 266.97
  Q 100.46 270.58 102.80 272.97
  Q 156.60 327.73 211.28 383.40
  Q 215.09 387.27 219.92 386.81
  Q 222.00 386.61 223.52 385.41
  C 227.13 382.57 228.43 380.80 228.44 376.02
  Q 228.51 342.45 228.42 308.21
  Q 228.41 303.29 225.42 300.18
  Q 223.50 298.18 218.66 296.30
  Q 151.69 270.21 122.89 259.07
  Q 119.23 257.66 115.33 256.03
  Q 113.36 255.21 111.50 255.08
  C 106.28 254.73 102.01 256.22 99.65 261.28
  Q 98.25 264.29 99.19 266.97
  Z
  M 361.46 256.24
  C 326.32 269.81 286.31 285.62 255.80 297.30
  Q 248.48 300.11 248.48 307.75
  Q 248.49 341.75 248.50 375.76
  C 248.50 384.89 258.30 391.01 265.58 383.62
  Q 320.25 328.12 374.58 272.74
  Q 379.20 268.03 377.59 261.76
  Q 377.11 259.87 375.58 258.33
  C 372.94 255.69 370.43 255.00 366.76 255.07
  Q 364.36 255.11 361.46 256.24
  Z"
/>
<path fill="#22304e" d="
  M 176.21 256.50
  Q 130.89 239.37 85.31 221.56
  Q 81.00 219.87 79.36 215.86
  C 77.17 210.50 80.52 206.33 84.05 202.67
  Q 145.63 138.92 205.72 76.41
  C 209.55 72.42 213.03 68.02 218.94 67.57
  Q 222.41 67.31 225.54 70.18
  Q 228.47 72.87 228.47 78.25
  Q 228.44 169.25 228.48 260.24
  Q 228.48 271.05 219.34 271.71
  Q 215.90 271.95 210.53 269.83
  Q 190.23 261.80 176.21 256.50
  Z"
/>
<path fill="#22304e" d="
  M 287.64 261.80
  Q 275.81 266.37 263.22 270.90
  C 258.84 272.47 254.42 272.24 251.24 268.74
  Q 250.00 267.38 249.40 265.36
  Q 248.51 262.37 248.51 259.22
  Q 248.48 175.02 248.48 80.08
  Q 248.48 76.41 249.59 73.93
  C 250.98 70.81 253.74 67.51 257.38 67.55
  Q 262.92 67.60 266.58 71.40
  Q 330.75 138.05 393.24 202.83
  C 396.33 206.03 400.50 210.97 397.80 215.75
  Q 397.26 216.70 396.89 217.73
  C 396.31 219.34 394.10 220.86 392.67 221.41
  Q 346.69 239.03 300.75 256.74
  Q 293.96 259.35 287.64 261.80
  Z"
/>
<path fill="#22304e" d="
  M 99.65 261.28
  C 102.01 256.22 106.28 254.73 111.50 255.08
  Q 113.36 255.21 115.33 256.03
  Q 119.23 257.66 122.89 259.07
  Q 151.69 270.21 218.66 296.30
  Q 223.50 298.18 225.42 300.18
  Q 228.41 303.29 228.42 308.21
  Q 228.51 342.45 228.44 376.02
  C 228.43 380.80 227.13 382.57 223.52 385.41
  Q 222.00 386.61 219.92 386.81
  Q 215.09 387.27 211.28 383.40
  Q 156.60 327.73 102.80 272.97
  Q 100.46 270.58 99.19 266.97
  Q 98.25 264.29 99.65 261.28
  Z"
/>
<path fill="#22304e" d="
  M 255.80 297.30
  C 286.31 285.62 326.32 269.81 361.46 256.24
  Q 364.36 255.11 366.76 255.07
  C 370.43 255.00 372.94 255.69 375.58 258.33
  Q 377.11 259.87 377.59 261.76
  Q 379.20 268.03 374.58 272.74
  Q 320.25 328.12 265.58 383.62
  C 258.30 391.01 248.50 384.89 248.50 375.76
  Q 248.49 341.75 248.48 307.75
  Q 248.48 300.11 255.80 297.30
  Z"
/>
</svg>
